<svg xmlns="http://www.w3.org/2000/svg" version="1.1" xmlns:xlink="http://www.w3.org/1999/xlink" id="Layer_1" x="0px" y="0px" viewBox="0 0 512 512" style="enable-background:new 0 0 512 512;" xml:space="preserve" width="512" height="512"><metadata><rdf:RDF xmlns:rdf="http://www.w3.org/1999/02/22-rdf-syntax-ns#" xmlns:dc="http://purl.org/dc/elements/1.1/"><rdf:Description><dc:creator>RealFaviconGenerator</dc:creator><dc:source>https://realfavicongenerator.net</dc:source></rdf:Description></rdf:RDF></metadata><g>
	<rect x="0.709" y="-1.016" style="fill:#03038C;" width="510.582" height="512.307"></rect>
	<path d="M510.582-0.306v510.888H1.418V-0.306H510.582 M512-1.725H0V512h512V-1.725L512-1.725z"></path>
</g><g>
	<rect x="0.687" y="256.687" style="fill:#931212;" width="510.627" height="254.627"></rect>
	<path d="M510.627,257.373v253.254H1.373V257.373H510.627 M512,256H0v256h512V256L512,256z"></path>
</g><polygon style="fill:#FFFFFF;stroke:#000000;stroke-width:1.1564;stroke-miterlimit:10;" points="313.668,256.754 0.399,508.11 
	1.682,-3.298 "></polygon><polygon style="fill:#E2D349;stroke:#717C09;stroke-width:6.4636;stroke-miterlimit:10;" points="108.765,159.22 113.828,220.122 
	135.019,166.591 123.184,225.592 157.276,187.581 130.345,235.699 172.148,218.995 134.221,248.904 177.37,256.051 134.221,263.198 
	172.148,293.106 130.345,276.403 157.276,324.52 123.184,286.51 135.019,345.511 113.828,291.98 108.765,352.881 103.701,291.98 
	82.51,345.511 94.345,286.51 60.253,324.52 87.184,276.403 45.381,293.106 83.309,263.198 40.159,256.051 83.309,248.904 
	45.381,218.995 87.184,235.699 60.253,187.581 94.345,225.592 82.51,166.591 103.701,220.122 "></polygon><polygon style="fill:#E2D349;stroke:#717C09;stroke-width:5.5587;stroke-miterlimit:10;" points="248.917,284.839 241.224,265.505 
	218.72,267.423 236.469,253.555 228.776,234.221 247.439,244.984 265.188,231.116 258.973,251.637 277.636,262.4 255.132,264.319 
	"></polygon><polygon style="fill:#E2D349;stroke:#717C09;stroke-width:5.5587;stroke-miterlimit:10;" points="41.346,110.377 33.652,91.042 
	11.148,92.961 28.898,79.093 21.204,59.758 39.867,70.522 57.617,56.654 51.402,77.174 70.065,87.937 47.561,89.856 "></polygon><polygon style="fill:#E2D349;stroke:#717C09;stroke-width:5.5587;stroke-miterlimit:10;" points="44.811,447.942 37.118,428.607 
	14.614,430.526 32.363,416.658 24.67,397.323 43.333,408.087 61.082,394.219 54.867,414.739 73.53,425.503 51.026,427.421 "></polygon></svg>